<svg width="40" height="40" viewBox="0 0 40 40" fill="none" xmlns="http://www.w3.org/2000/svg">
<path fill-rule="evenodd" clip-rule="evenodd" d="M20 40C31.0457 40 40 31.0457 40 20C40 8.9543 31.0457 0 20 0C8.9543 0 0 8.9543 0 20C0 31.0457 8.9543 40 20 40Z" fill="#FF7171"/>
<path fill-rule="evenodd" clip-rule="evenodd" d="M13.0368 15.7288C14.5235 15.7288 15.7288 14.5235 15.7288 13.0368C15.7288 11.5501 14.5235 10.3448 13.0368 10.3448C11.5501 10.3448 10.3448 11.5501 10.3448 13.0368C10.3448 14.5235 11.5501 15.7288 13.0368 15.7288ZM13.0368 22.692C14.5235 22.692 15.7288 21.4868 15.7288 20C15.7288 18.5133 14.5235 17.3081 13.0368 17.3081C11.5501 17.3081 10.3448 18.5133 10.3448 20C10.3448 21.4868 11.5501 22.692 13.0368 22.692ZM29.6552 13.0368C29.6552 14.5235 28.45 15.7288 26.9632 15.7288C25.4765 15.7288 24.2713 14.5235 24.2713 13.0368C24.2713 11.5501 25.4765 10.3448 26.9632 10.3448C28.45 10.3448 29.6552 11.5501 29.6552 13.0368ZM20 15.7288C21.4868 15.7288 22.692 14.5235 22.692 13.0368C22.692 11.5501 21.4868 10.3448 20 10.3448C18.5133 10.3448 17.3081 11.5501 17.3081 13.0368C17.3081 14.5235 18.5133 15.7288 20 15.7288ZM23.0509 20C23.0509 21.4868 21.8457 22.692 20.3589 22.692C18.8722 22.692 17.667 21.4868 17.667 20C17.667 18.5133 18.8722 17.3081 20.3589 17.3081C21.8457 17.3081 23.0509 18.5133 23.0509 20ZM13.0368 29.6552C14.5235 29.6552 15.7288 28.45 15.7288 26.9632C15.7288 25.4765 14.5235 24.2713 13.0368 24.2713C11.5501 24.2713 10.3448 25.4765 10.3448 26.9632C10.3448 28.45 11.5501 29.6552 13.0368 29.6552ZM29.6552 26.9632C29.6552 28.45 28.45 29.6552 26.9632 29.6552C25.4765 29.6552 24.2713 28.45 24.2713 26.9632C24.2713 25.4765 25.4765 24.2713 26.9632 24.2713C28.45 24.2713 29.6552 25.4765 29.6552 26.9632Z" fill="white"/>
</svg>
